<svg width="189" height="36" viewBox="0 0 189 36" fill="none" xmlns="http://www.w3.org/2000/svg">
<rect width="189" height="36" rx="4" fill="#40D2BF"/>
<g opacity="0.372622">
<path d="M0 4C0 1.79086 1.79086 0 4 0H36V36H4C1.79086 36 0 34.2091 0 32V4Z" fill="#40D2BF" style="mix-blend-mode:multiply"/>
</g>
<path d="M21 10H17V16H11V20H17V26H21V20H27V16H21V10Z" fill="white"/>
<path d="M53.488 22.168C55.364 22.168 56.526 21.174 57.24 20.054L55.84 19.354C55.392 20.124 54.482 20.712 53.488 20.712C51.64 20.712 50.268 19.284 50.268 17.338C50.268 15.364 51.64 13.964 53.488 13.964C54.482 13.964 55.392 14.538 55.84 15.322L57.226 14.594C56.54 13.474 55.364 12.508 53.488 12.508C50.73 12.508 48.588 14.454 48.588 17.338C48.588 20.208 50.73 22.168 53.488 22.168ZM65.775 22L63.479 18.332C64.613 18.15 65.705 17.24 65.705 15.588C65.705 13.852 64.487 12.662 62.639 12.662H58.537V22H60.175V18.514H61.813L63.871 22H65.775ZM62.429 17.072H60.175V14.104H62.429C63.353 14.104 64.025 14.678 64.025 15.574C64.025 16.484 63.353 17.072 62.429 17.072ZM73.7397 22V20.558H68.9797V17.954H73.6417V16.512H68.9797V14.104H73.7397V12.662H67.3417V22H73.7397ZM83.8357 22L80.1677 12.662H78.1237L74.4557 22H76.3177L77.0037 20.194H81.2877L81.9737 22H83.8357ZM80.8257 18.752H77.4657L79.1457 14.3L80.8257 18.752ZM87.7896 22V14.104H90.6176V12.662H83.3236V14.104H86.1516V22H87.7896ZM98.4037 22V20.558H93.6437V17.954H98.3057V16.512H93.6437V14.104H98.4037V12.662H92.0057V22H98.4037ZM111.787 22V12.662H110.149V19.13L105.375 12.662H103.695V22H105.333V15.322L110.205 22H111.787ZM120.169 22V20.558H115.409V17.954H120.071V16.512H115.409V14.104H120.169V12.662H113.771V22H120.169ZM130.741 22L133.415 12.662H131.581L129.761 19.844L127.829 12.662H126.527L124.595 19.844L122.775 12.662H120.955L123.615 22H125.365L127.185 15.098L128.991 22H130.741ZM141.971 22V14.104H144.799V12.662H137.505V14.104H140.333V22H141.971ZM152.585 22V20.558H147.825V17.954H152.487V16.512H147.825V14.104H152.585V12.662H146.187V22H152.585ZM162.681 22L159.013 12.662H156.969L153.301 22H155.163L155.849 20.194H160.133L160.819 22H162.681ZM159.671 18.752H156.311L157.991 14.3L159.671 18.752ZM173.389 22V12.662H171.079L168.545 19.074L165.997 12.662H163.687V22H165.325V14.79L168.195 22H168.895L171.751 14.79V22H173.389Z" fill="white"/>
</svg>
